<?xml version="1.0" encoding="utf-8"?>
<!-- Generator: Adobe Illustrator 16.0.0, SVG Export Plug-In . SVG Version: 6.00 Build 0)  -->
<!DOCTYPE svg PUBLIC "-//W3C//DTD SVG 1.1//EN" "http://www.w3.org/Graphics/SVG/1.1/DTD/svg11.dtd">
<svg version="1.1"
	 id="svg2" inkscape:version="0.48.3.1 r9886" sodipodi:docname="The_Noun_Project_Single_Icon_Template_v1.1.ai" xmlns:rdf="http://www.w3.org/1999/02/22-rdf-syntax-ns#" xmlns:dc="http://purl.org/dc/elements/1.1/" xmlns:cc="http://creativecommons.org/ns#" xmlns:sodipodi="http://sodipodi.sourceforge.net/DTD/sodipodi-0.dtd" xmlns:svg="http://www.w3.org/2000/svg" xmlns:inkscape="http://www.inkscape.org/namespaces/inkscape"
	 xmlns="http://www.w3.org/2000/svg" xmlns:xlink="http://www.w3.org/1999/xlink" x="0px" y="0px" width="100px" height="100px"
	 viewBox="0 0 100 100" enable-background="new 0 0 100 100" xml:space="preserve">
<sodipodi:namedview  pagecolor="#ffffff" inkscape:cx="40.102597" borderopacity="1" inkscape:cy="36.634776" gridtolerance="10" bordercolor="#666666" showgrid="false" guidetolerance="10" objecttolerance="10" inkscape:zoom="2" inkscape:window-y="26" inkscape:window-width="1920" inkscape:window-height="1032" inkscape:pageshadow="2" inkscape:pageopacity="0" inkscape:current-layer="g10" inkscape:window-maximized="1" inkscape:window-x="0" id="namedview4">
	</sodipodi:namedview>
<path d="M81.477,53.941L71.636,44.1V30.625c-0.003-0.862-0.702-1.561-1.564-1.564h-6.662c-0.862,0.003-1.562,0.702-1.564,1.564
	v3.684L51.11,23.575c-0.337-0.339-0.812-0.507-1.287-0.454c-0.354,0.041-0.683,0.201-0.934,0.454L18.523,53.941
	c-0.61,0.616-0.605,1.61,0.012,2.221c0.292,0.289,0.687,0.452,1.099,0.454h8.529V83.33c0.003,0.863,0.702,1.562,1.564,1.564h10.624
	h2.823V68.188c0.004-0.863,0.702-1.562,1.564-1.564h10.523c0.862,0.003,1.561,0.701,1.564,1.564v16.706h2.139h1.062h10.246
	c0.862-0.003,1.561-0.701,1.564-1.564V56.616h8.528c0.867-0.004,1.567-0.709,1.564-1.576C81.929,54.628,81.767,54.234,81.477,53.941
	z"/>
</svg>
