<svg xmlns="http://www.w3.org/2000/svg" xmlns:xlink="http://www.w3.org/1999/xlink" version="1.1" id="pray" x="0px" y="0px" width="100px" height="100px" viewBox="0 0 100 100" enable-background="new 0 0 100 100" xml:space="preserve">
<path fill="#000000" d="M76.15,45.313l4.479-4.48c1.786-1.786,1.786-4.709,0-6.495l-0.243-0.245  c-0.803-0.801-1.834-1.223-2.889-1.305l1.282-1.282c2.088-2.087,2.088-5.503,0-7.591l-0.223-0.222  c-2.05-2.048-5.368-2.074-7.466-0.102c0.814,1.206,1.255,2.627,1.255,4.119c0,1.559-0.479,3.041-1.362,4.279  c0.289,0.206,0.562,0.436,0.814,0.688l0.246,0.247c1.239,1.24,1.924,2.895,1.924,4.66c0,1.765-0.684,3.42-1.926,4.662l-1.88,1.88  c0.386,0.237,0.744,0.519,1.069,0.844c2.427,2.427,2.31,6.493-0.261,9.062L59.048,65.954c-0.397,0.485-0.816,0.949-1.244,1.379  l-8.662,8.662c-1.405,1.404-3.003,2.549-4.728,3.432c4.771,0.395,9.684-1.216,13.312-4.846l8.66-8.66  c0.419-0.42,0.81-0.857,1.176-1.309l11.994-11.994c1.785-1.785,1.902-4.591,0.261-6.234C78.852,45.417,77.48,45.077,76.15,45.313z"/>
<path fill="#000000" d="M66.15,45.313l4.479-4.48c1.786-1.786,1.786-4.709,0-6.495l-0.243-0.245  c-0.803-0.801-1.834-1.223-2.889-1.305l1.282-1.282c2.088-2.087,2.088-5.503,0-7.591l-0.223-0.222c-2.089-2.087-5.503-2.087-7.592,0  l-1.279,1.28c-0.082-1.053-0.504-2.083-1.306-2.884l-0.243-0.245c-1.787-1.786-4.71-1.786-6.496,0L38.335,35.151  c0.021-2.082-1.094-4.023-2.995-4.831c-2.572-1.094-5.647,0.29-6.829,3.073L19.248,55.2c-0.836,2.143-1.753,4.892-0.835,9.476  c0,0,0.149,0.878,0.498,1.985c0.02,0.062,0.04,0.119,0.059,0.18c0.05,0.152,0.104,0.311,0.162,0.469  c0.801,2.381,2.125,4.62,4.014,6.508l0.766,0.766c6.55,6.55,17.269,6.55,23.817,0l8.66-8.66c0.419-0.42,0.81-0.857,1.176-1.309  L69.559,52.62c1.785-1.786,1.902-4.591,0.261-6.234C68.852,45.417,67.48,45.077,66.15,45.313z"/>
</svg>