<svg xmlns="http://www.w3.org/2000/svg" xmlns:xlink="http://www.w3.org/1999/xlink" version="1.1" id="Calque_1" x="0px" y="0px" width="100px" height="100px" viewBox="0 0 100 100" enable-background="new 0 0 100 100" xml:space="preserve">
<path fill-rule="evenodd" clip-rule="evenodd" d="M48.787,21.304c0.327,0,0.653,0,0.979,0c17.824-0.392,15.097,21.523,9.305,31.587  c-1.086,1.887-2.42,3.704-2.204,5.388c0.842,6.573,16.244,4.96,19.589,8.814c2.387,2.751,0.968,6.625,1.714,11.999  c-19.181-0.164-39.014,0.326-57.787-0.245c0.762-5.272-0.637-9.045,1.714-11.754c3.679-4.239,19.014-2.07,19.589-9.06  c0.13-1.576-1.098-3.222-2.204-5.143C33.339,42.218,31.328,20.885,48.787,21.304z"/>
</svg>